<svg width="85" height="86" viewBox="0 0 85 86" fill="none" xmlns="http://www.w3.org/2000/svg">
<path d="M12.6885 19.1878C30.9486 -22.5595 76.1288 14.7766 57.6982 28.6322C50.0968 34.3454 44.3333 28.8703 39.7951 21.8993C36.8271 17.3423 32.8003 13.2768 27.4889 12.7814C21.2931 12.2052 17.1494 15.7195 12.6885 19.1878Z" fill="#FFFF5C"/>
<path d="M56.3955 5.63934C104.232 9.69413 80.9484 64.6871 61.1486 51.5512C52.9846 46.1356 56.6741 38.8922 62.2551 32.3382C65.9059 28.0529 68.7228 22.9154 67.537 17.6964C66.154 11.6073 61.3052 8.78026 56.3955 5.63934Z" fill="#FFFF5C"/>
<path d="M83.3306 43.7049C93.8427 89.5493 34.9125 84.8971 41.3831 62.3716C44.0511 53.0831 51.9997 54.275 59.8675 57.4463C65.0081 59.5192 70.7051 60.5517 75.2794 57.829C80.6193 54.6518 81.8348 49.2541 83.3306 43.7049Z" fill="#FFFF5C"/>
<path d="M54.9836 80.2185C15.9496 103.893 2.42108 47.2564 25.1205 46.5329C34.4804 46.2335 35.785 54.0413 35.2408 62.3703C34.8857 67.8154 35.6557 73.4666 39.5445 76.932C44.0855 80.9769 49.4236 80.4908 54.9836 80.2185Z" fill="#FFFF5C"/>
<path d="M12.495 64.8525C-23.1097 34.5929 27.878 3.96568 35.844 25.6104C39.1291 34.5362 31.9199 38.2199 23.6123 40.2846C18.1805 41.6338 12.9084 44.1306 10.7656 48.9562C8.26732 54.5873 10.4521 59.5791 12.495 64.8525Z" fill="#FFFF5C"/>
</svg>
